<svg xmlns="http://www.w3.org/2000/svg" viewBox="0 0 34 34"><path d="M17 2.4C9 2.4 2.4 9 2.4 17S9 31.6 17 31.6 31.6 25.1 31.6 17C31.6 9 25 2.4 17 2.4zm0 28.3C9.5 30.7 3.3 24.6 3.3 17 3.3 9.5 9.5 3.3 17 3.3c7.5 0 13.7 6.1 13.7 13.7S24.5 30.7 17 30.7zm.2-20.5c-.2-.2-.3-.5-.3-.8 0-.4.1-.8.4-1.1.3-.3.6-.5 1-.4.4 0 .7.1.9.3.2.2.3.5.3.8 0 .4-.2.8-.4 1.1-.3.3-.7.5-1.1.4-.3.1-.6-.1-.8-.3zm.3 12.5c0 .2 0 .3.1.4.1.1.1.1.2.1.2 0 .3 0 .5-.1s.3-.2.6-.5l.3.5c-.2.3-.5.6-.9.9-.4.3-.9.5-1.5.5-.5 0-.8-.1-1.1-.3-.3-.2-.4-.5-.3-1 .1-.6.2-1.9.5-3.9.4-2.6.6-4.3.7-5l-1.3-.5.1-.7 3-.5.5.2-1.4 9.5v.4z"/></svg>